<?xml version="1.0" encoding="utf-8"?>
<!-- Generator: Adobe Illustrator 19.0.1, SVG Export Plug-In . SVG Version: 6.00 Build 0)  -->
<svg version="1.1" id="Capa_1" xmlns="http://www.w3.org/2000/svg" xmlns:xlink="http://www.w3.org/1999/xlink" x="0px" y="0px"
	 viewBox="0 0 167.8 63.5" style="enable-background:new 0 0 167.8 63.5;" xml:space="preserve">
<style type="text/css">
	.st0{fill:#D9D9D9;}
	.st1{fill:#0968B1;}
	.st2{fill:url(#SVGID_1_);}
	.st3{fill:url(#SVGID_2_);}
	.st4{fill:url(#SVGID_3_);}
</style>
<g>
	<polygon class="st0" points="26.1,38.1 30.4,35.5 67.7,54.9 56.7,63.5 30.4,49.4 	"/>
	<polygon class="st0" points="16.1,56.8 38.6,43.2 25.1,38.6 24.6,38.1 16,43.4 12,41.2 0,48.2 	"/>
	<g>
		<g>
			<g>
				<path class="st1" d="M92.6,20.6l-13.9-0.2l-0.1,7.9l9.2,0l0,1.1c0,0,0,0.7-0.5,1.3c-0.6,0.7-2.1,0.7-2.1,0.7l-6.7,0l-0.1,8.9
					c0,0,0.1,1.4-0.6,2c-0.6,0.6-1.9,0.5-1.9,0.5l-1,0l0.4-25.6l17.3,0.3L92.6,20.6z"/>
				<path class="st1" d="M106.3,43.4l-1.2,0.3c0,0-1.6,0.3-2.2-0.7c-0.2-0.4-0.4-0.9-0.5-1.9c-2.1,1.8-4.4,2.6-6.9,2.6
					c-2,0-3.5-0.5-4.6-1.5c-1.1-1-1.7-2.3-1.6-3.9c0-1.5,0.6-2.8,1.7-3.8c1.1-1,3-1.6,5.7-1.9l2.9-0.4c1.1-0.2,2-0.4,2.7-0.6
					c0-0.9,0-1.6-0.1-2c-0.1-0.4-0.2-0.8-0.5-1.2c-0.3-0.4-0.7-0.8-1.4-1c-0.6-0.3-1.5-0.4-2.5-0.4c-1.4,0-2.4,0.2-3.2,0.7
					c-0.8,0.5-1.3,1.4-1.7,2.8l-3.1-0.5c0.4-1.9,1.3-3.3,2.7-4.2c1.4-0.9,3.3-1.4,5.8-1.3c2.2,0,3.8,0.4,4.9,1.1
					c1,0.7,1.7,1.5,1.9,2.4c0.2,0.9,0.3,2.1,0.3,3.6l-0.1,4.2c0,2.6,0,4.3,0.1,5.2C105.7,41.7,106.3,43.4,106.3,43.4z M102.4,35.2
					l0-1.1c-1.6,0.5-3.7,0.9-6,1.2c-2.4,0.3-3.6,1.3-3.6,2.9c0,0.8,0.3,1.6,0.9,2.1c0.6,0.6,1.5,0.9,2.7,0.9c1.5,0,2.9-0.4,4.1-1.3
					C101.7,39,102.4,37.4,102.4,35.2z"/>
				<path class="st1" d="M122.8,37.7c0.4,0.6,0.4,1.5,0.1,2.1c-0.5,1.1-1.2,2-2.1,2.7c-1.5,1.1-3.1,1.6-5,1.6c-2.7,0-4.7-1-6.2-2.7
					c-1.4-1.8-2.1-4.1-2.1-7c0-2.4,0.5-4.3,1.4-5.8c0.9-1.4,1.9-2.4,3.2-3c1.3-0.6,2.6-0.8,4-0.8c1.9,0,3.5,0.6,4.9,1.6
					c1.3,1,2.1,2.5,2.4,4.4l-3,0.4c-0.3-1.2-0.8-2.2-1.5-2.8c-0.7-0.6-1.6-1-2.7-1c-1.8,0-3.1,0.6-4,1.8c-0.9,1.2-1.4,3-1.4,5.2
					c0,2.3,0.4,4,1.2,5.3c0.9,1.3,2.1,1.9,3.8,1.9c1.4,0,2.4-0.3,3.2-1.1c0.8-0.8,1.4-1.9,1.5-3.5l0.8,0.1
					C121.3,37,122.5,37.2,122.8,37.7z"/>
				<path class="st1" d="M132.9,43.4c-0.1,0.2-0.4,0.6-1,0.7c-0.3,0.1-0.6,0.1-0.8,0.1c-1.4,0-2.4-0.3-3-0.8c-0.6-0.5-1-1.1-1.1-1.9
					c-0.1-0.7-0.2-1.8-0.2-3.1l0.2-10.7l-2.3,0l0-2.4l2.3,0l0.1-4.6l3.2-1.8l-0.1,6.5l3.1,0.1l0,2.4l-3.1-0.1L130,38.6
					c0,0.9,0.1,1.6,0.3,2c0.2,0.4,0.7,0.6,1.4,0.6c0.5,0,0.9,0,1.4-0.1l0.1,0.9C133.2,42,133.3,42.8,132.9,43.4z"/>
				<path class="st1" d="M150.5,44.2l-1,0c0,0-1.1,0-1.5-0.6c-0.3-0.4-0.3-1.2-0.3-1.2l0-1l-0.1,0c-1.5,2.1-3.4,3.1-5.9,3.1
					c-1.3,0-2.5-0.3-3.6-1c-1.1-0.6-1.8-1.5-2.2-2.5c-0.3-1.1-0.5-2.4-0.5-4.1l0.2-11.5l3.1,0.1l-0.2,10.3c0,1.6,0,2.8,0.2,3.5
					c0.1,0.7,0.5,1.3,1.2,1.8c0.7,0.5,1.4,0.7,2.4,0.7c1.2,0,2.3-0.4,3.4-1.2c1.1-0.8,1.6-2.5,1.7-5.1l0.2-9.9l3.1,0.1L150.5,44.2z"
					/>
				<path class="st1" d="M164.1,31.2c-0.1-1-0.5-1.8-1.2-2.3c-0.7-0.5-1.6-0.8-2.8-0.8c-1.2,0-2.2,0.2-2.9,0.6
					c-0.7,0.4-1.1,1-1.1,1.8c0,0.7,0.3,1.3,0.9,1.6c0.6,0.3,1.7,0.7,3.5,1.2c1.9,0.5,3.4,1,4.4,1.4c1,0.4,1.7,1,2.2,1.7
					c0.5,0.7,0.8,1.7,0.8,2.9c0,1.7-0.7,3-2.1,4.1c-1.4,1.1-3.2,1.6-5.4,1.6c-2.4,0-4.2-0.6-5.5-1.6c-0.7-0.5-1.2-1.2-1.6-2
					c-0.3-0.5-0.3-1.3,0.2-2.2c0.4-0.6,1.3-0.7,1.3-0.7l0.9-0.1c0.1,1.3,0.6,2.3,1.4,2.9c0.8,0.7,1.9,1,3.3,1c1.4,0,2.4-0.2,3.2-0.8
					c0.7-0.6,1.1-1.3,1.1-2.1c0-0.6-0.2-1-0.5-1.4c-0.3-0.3-0.8-0.6-1.3-0.8c-0.5-0.2-1.6-0.5-3.4-1c-2.6-0.7-4.3-1.5-5.2-2.4
					c-0.8-0.9-1.2-2-1.2-3.2c0-1.5,0.7-2.8,1.9-3.8s2.9-1.5,5-1.4c2.2,0,3.9,0.5,5.1,1.4c1.2,0.9,1.9,2.2,2.1,3.9L164.1,31.2z"/>
			</g>
		</g>
		<g>
			<path class="st1" d="M78.1,48.4c0,0.1,0,0.1,0,0.2c0,0,0,0.1,0,0.1c0,0,0,0-0.1,0.1c0,0,0,0-0.1,0h-2.2v2.1h2.1c0,0,0,0,0.1,0
				c0,0,0,0,0.1,0.1c0,0,0,0.1,0,0.1c0,0,0,0.1,0,0.2c0,0.1,0,0.1,0,0.2c0,0,0,0.1,0,0.1c0,0,0,0-0.1,0.1c0,0,0,0-0.1,0h-2.1V54
				c0,0,0,0,0,0.1c0,0,0,0-0.1,0c0,0-0.1,0-0.1,0c0,0-0.1,0-0.2,0c-0.1,0-0.1,0-0.2,0c-0.1,0-0.1,0-0.1,0c0,0-0.1,0-0.1,0
				c0,0,0,0,0-0.1v-5.6c0-0.1,0-0.2,0.1-0.3c0.1,0,0.1-0.1,0.2-0.1H78c0,0,0,0,0.1,0c0,0,0,0,0.1,0.1c0,0,0,0.1,0,0.1
				C78.1,48.3,78.1,48.3,78.1,48.4z"/>
			<path class="st1" d="M82.4,54C82.4,54,82.4,54,82.4,54c-0.1,0.1-0.1,0.1-0.1,0.1c0,0-0.1,0-0.2,0c-0.1,0-0.1,0-0.2,0
				c0,0-0.1,0-0.1,0c0,0,0,0,0-0.1v-0.4c-0.2,0.2-0.4,0.3-0.6,0.5c-0.2,0.1-0.5,0.2-0.7,0.2c-0.2,0-0.4,0-0.6-0.1
				c-0.2-0.1-0.3-0.1-0.5-0.3c-0.1-0.1-0.2-0.2-0.3-0.4c-0.1-0.2-0.1-0.3-0.1-0.5c0-0.2,0-0.4,0.1-0.6c0.1-0.2,0.2-0.3,0.4-0.4
				c0.2-0.1,0.4-0.2,0.7-0.3c0.3-0.1,0.6-0.1,0.9-0.1h0.6v-0.3c0-0.2,0-0.3-0.1-0.4c0-0.1-0.1-0.2-0.2-0.3s-0.2-0.1-0.3-0.2
				c-0.1,0-0.3-0.1-0.4-0.1c-0.2,0-0.4,0-0.5,0.1c-0.2,0-0.3,0.1-0.4,0.1c-0.1,0.1-0.2,0.1-0.3,0.1c-0.1,0-0.1,0.1-0.2,0.1
				c0,0,0,0-0.1,0c0,0,0,0,0-0.1c0,0,0-0.1,0-0.1c0,0,0-0.1,0-0.1c0-0.1,0-0.1,0-0.2c0,0,0-0.1,0.1-0.1c0,0,0.1-0.1,0.2-0.1
				c0.1-0.1,0.2-0.1,0.4-0.1c0.1,0,0.3-0.1,0.4-0.1c0.2,0,0.3,0,0.5,0c0.3,0,0.6,0,0.8,0.1c0.2,0.1,0.4,0.2,0.5,0.3
				c0.1,0.1,0.2,0.3,0.3,0.5c0.1,0.2,0.1,0.4,0.1,0.7V54z M81.6,52h-0.7c-0.2,0-0.4,0-0.6,0.1c-0.2,0-0.3,0.1-0.4,0.2
				c-0.1,0.1-0.2,0.2-0.2,0.3c0,0.1-0.1,0.2-0.1,0.3c0,0.2,0.1,0.4,0.2,0.5c0.1,0.1,0.3,0.2,0.6,0.2c0.2,0,0.4-0.1,0.6-0.2
				c0.2-0.1,0.4-0.3,0.5-0.5V52z"/>
			<path class="st1" d="M87,53.3c0,0.1,0,0.1,0,0.1c0,0,0,0.1,0,0.1c0,0,0,0,0,0.1c0,0,0,0-0.1,0.1c0,0-0.1,0.1-0.2,0.1
				c-0.1,0.1-0.2,0.1-0.3,0.2c-0.1,0-0.2,0.1-0.4,0.1c-0.1,0-0.3,0-0.4,0c-0.3,0-0.6-0.1-0.8-0.2c-0.2-0.1-0.4-0.2-0.6-0.4
				c-0.2-0.2-0.3-0.4-0.4-0.7c-0.1-0.3-0.1-0.6-0.1-1c0-0.4,0.1-0.8,0.2-1.1c0.1-0.3,0.2-0.5,0.4-0.7c0.2-0.2,0.4-0.3,0.6-0.4
				c0.2-0.1,0.5-0.1,0.8-0.1c0.1,0,0.3,0,0.4,0c0.1,0,0.2,0.1,0.3,0.1c0.1,0,0.2,0.1,0.3,0.1c0.1,0.1,0.1,0.1,0.2,0.1
				c0,0,0.1,0.1,0.1,0.1c0,0,0,0,0,0.1c0,0,0,0.1,0,0.1c0,0,0,0.1,0,0.1c0,0.1,0,0.2,0,0.3c0,0-0.1,0.1-0.1,0.1c0,0-0.1,0-0.2-0.1
				c-0.1-0.1-0.1-0.1-0.2-0.2c-0.1-0.1-0.2-0.1-0.3-0.2c-0.1-0.1-0.3-0.1-0.5-0.1c-0.4,0-0.7,0.1-0.9,0.4c-0.2,0.3-0.3,0.7-0.3,1.2
				c0,0.3,0,0.5,0.1,0.7c0.1,0.2,0.1,0.4,0.2,0.5c0.1,0.1,0.2,0.2,0.4,0.3c0.1,0.1,0.3,0.1,0.5,0.1c0.2,0,0.3,0,0.5-0.1
				c0.1-0.1,0.2-0.1,0.3-0.2c0.1-0.1,0.2-0.1,0.2-0.2c0.1-0.1,0.1-0.1,0.2-0.1c0,0,0,0,0.1,0c0,0,0,0,0,0.1c0,0,0,0.1,0,0.1
				C87,53.2,87,53.3,87,53.3z"/>
			<path class="st1" d="M90.4,53.7c0,0.1,0,0.2,0,0.2c0,0.1,0,0.1-0.1,0.1c0,0-0.1,0-0.1,0.1c0,0-0.1,0-0.2,0.1c-0.1,0-0.1,0-0.2,0
				c-0.1,0-0.1,0-0.2,0c-0.2,0-0.4,0-0.6-0.1c-0.2-0.1-0.3-0.1-0.4-0.3c-0.1-0.1-0.2-0.3-0.2-0.4c0-0.2-0.1-0.4-0.1-0.6v-2.5h-0.6
				c0,0-0.1,0-0.1-0.1c0,0,0-0.1,0-0.2c0-0.1,0-0.1,0-0.1c0,0,0-0.1,0-0.1c0,0,0,0,0-0.1c0,0,0,0,0.1,0h0.6v-1c0,0,0,0,0-0.1
				c0,0,0,0,0.1,0c0,0,0.1,0,0.1,0c0,0,0.1,0,0.2,0c0.1,0,0.1,0,0.2,0c0,0,0.1,0,0.1,0c0,0,0,0,0.1,0c0,0,0,0,0,0.1v1h1.1
				c0,0,0,0,0.1,0c0,0,0,0,0,0.1c0,0,0,0.1,0,0.1c0,0,0,0.1,0,0.1c0,0.1,0,0.2,0,0.2c0,0.1-0.1,0.1-0.1,0.1h-1.1v2.3
				c0,0.3,0,0.5,0.1,0.7c0.1,0.1,0.2,0.2,0.5,0.2c0.1,0,0.1,0,0.2,0c0.1,0,0.1,0,0.1,0c0,0,0.1,0,0.1,0c0,0,0.1,0,0.1,0c0,0,0,0,0,0
				c0,0,0,0,0,0c0,0,0,0.1,0,0.1C90.4,53.6,90.4,53.6,90.4,53.7z"/>
			<path class="st1" d="M95.2,54C95.2,54,95.2,54,95.2,54c0,0.1,0,0.1-0.1,0.1c0,0-0.1,0-0.1,0c0,0-0.1,0-0.2,0c-0.1,0-0.1,0-0.2,0
				c0,0-0.1,0-0.1,0c0,0,0,0-0.1,0c0,0,0,0,0-0.1v-0.6c-0.2,0.3-0.5,0.5-0.7,0.6c-0.2,0.1-0.5,0.2-0.7,0.2c-0.3,0-0.5,0-0.7-0.1
				c-0.2-0.1-0.3-0.2-0.5-0.4c-0.1-0.2-0.2-0.3-0.3-0.6c-0.1-0.2-0.1-0.5-0.1-0.8v-2.5c0,0,0,0,0-0.1c0,0,0,0,0.1,0c0,0,0.1,0,0.1,0
				c0.1,0,0.1,0,0.2,0c0.1,0,0.1,0,0.2,0c0,0,0.1,0,0.1,0c0,0,0.1,0,0.1,0c0,0,0,0,0,0.1v2.4c0,0.2,0,0.4,0.1,0.6
				c0,0.1,0.1,0.3,0.2,0.4c0.1,0.1,0.2,0.2,0.3,0.2c0.1,0.1,0.2,0.1,0.4,0.1c0.2,0,0.4-0.1,0.6-0.2c0.2-0.1,0.4-0.3,0.6-0.6v-2.9
				c0,0,0,0,0-0.1c0,0,0,0,0.1,0c0,0,0.1,0,0.1,0c0,0,0.1,0,0.2,0c0.1,0,0.1,0,0.2,0c0.1,0,0.1,0,0.1,0c0,0,0,0,0.1,0c0,0,0,0,0,0.1
				V54z"/>
			<path class="st1" d="M99.3,50c0,0.1,0,0.1,0,0.2c0,0,0,0.1,0,0.1c0,0,0,0,0,0.1c0,0,0,0-0.1,0c0,0-0.1,0-0.1,0c0,0-0.1,0-0.1,0
				c0,0-0.1,0-0.2,0c-0.1,0-0.1,0-0.2,0c-0.1,0-0.2,0-0.2,0c-0.1,0-0.2,0.1-0.2,0.2c-0.1,0.1-0.2,0.2-0.3,0.3
				c-0.1,0.1-0.2,0.3-0.3,0.4V54c0,0,0,0,0,0.1c0,0,0,0-0.1,0c0,0-0.1,0-0.1,0c0,0-0.1,0-0.2,0c-0.1,0-0.1,0-0.2,0c0,0-0.1,0-0.1,0
				c0,0,0,0-0.1,0c0,0,0,0,0-0.1v-4.2c0,0,0,0,0-0.1c0,0,0,0,0.1,0c0,0,0.1,0,0.1,0c0,0,0.1,0,0.2,0c0.1,0,0.1,0,0.2,0
				c0,0,0.1,0,0.1,0c0,0,0,0,0.1,0c0,0,0,0,0,0.1v0.6c0.1-0.2,0.2-0.3,0.3-0.4c0.1-0.1,0.2-0.2,0.3-0.2c0.1-0.1,0.2-0.1,0.3-0.1
				c0.1,0,0.2,0,0.3,0c0,0,0.1,0,0.1,0c0.1,0,0.1,0,0.2,0c0.1,0,0.1,0,0.2,0c0,0,0.1,0,0.1,0c0,0,0,0,0,0c0,0,0,0,0,0.1
				c0,0,0,0.1,0,0.1C99.3,49.9,99.3,50,99.3,50z"/>
			<path class="st1" d="M103.3,54C103.3,54,103.3,54,103.3,54c-0.1,0.1-0.1,0.1-0.1,0.1c0,0-0.1,0-0.2,0c-0.1,0-0.1,0-0.2,0
				c0,0-0.1,0-0.1,0c0,0,0,0,0-0.1v-0.4c-0.2,0.2-0.4,0.3-0.6,0.5c-0.2,0.1-0.5,0.2-0.7,0.2c-0.2,0-0.4,0-0.6-0.1
				c-0.2-0.1-0.3-0.1-0.5-0.3c-0.1-0.1-0.2-0.2-0.3-0.4c-0.1-0.2-0.1-0.3-0.1-0.5c0-0.2,0-0.4,0.1-0.6c0.1-0.2,0.2-0.3,0.4-0.4
				c0.2-0.1,0.4-0.2,0.7-0.3c0.3-0.1,0.6-0.1,0.9-0.1h0.6v-0.3c0-0.2,0-0.3-0.1-0.4c0-0.1-0.1-0.2-0.2-0.3c-0.1-0.1-0.2-0.1-0.3-0.2
				c-0.1,0-0.3-0.1-0.4-0.1c-0.2,0-0.4,0-0.5,0.1c-0.2,0-0.3,0.1-0.4,0.1c-0.1,0.1-0.2,0.1-0.3,0.1c-0.1,0-0.1,0.1-0.2,0.1
				c0,0,0,0-0.1,0c0,0,0,0,0-0.1c0,0,0-0.1,0-0.1c0,0,0-0.1,0-0.1c0-0.1,0-0.1,0-0.2c0,0,0-0.1,0.1-0.1c0,0,0.1-0.1,0.2-0.1
				c0.1-0.1,0.2-0.1,0.4-0.1c0.1,0,0.3-0.1,0.4-0.1c0.2,0,0.3,0,0.5,0c0.3,0,0.6,0,0.8,0.1c0.2,0.1,0.4,0.2,0.5,0.3
				c0.1,0.1,0.2,0.3,0.3,0.5c0.1,0.2,0.1,0.4,0.1,0.7V54z M102.5,52h-0.7c-0.2,0-0.4,0-0.6,0.1c-0.2,0-0.3,0.1-0.4,0.2
				c-0.1,0.1-0.2,0.2-0.2,0.3c0,0.1-0.1,0.2-0.1,0.3c0,0.2,0.1,0.4,0.2,0.5c0.1,0.1,0.3,0.2,0.6,0.2c0.2,0,0.4-0.1,0.6-0.2
				c0.2-0.1,0.4-0.3,0.5-0.5V52z"/>
			<path class="st1" d="M107.9,53.3c0,0.1,0,0.1,0,0.1c0,0,0,0.1,0,0.1c0,0,0,0,0,0.1c0,0,0,0-0.1,0.1c0,0-0.1,0.1-0.2,0.1
				c-0.1,0.1-0.2,0.1-0.3,0.2c-0.1,0-0.2,0.1-0.4,0.1c-0.1,0-0.3,0-0.4,0c-0.3,0-0.6-0.1-0.8-0.2c-0.2-0.1-0.4-0.2-0.6-0.4
				c-0.2-0.2-0.3-0.4-0.4-0.7c-0.1-0.3-0.1-0.6-0.1-1c0-0.4,0-0.8,0.2-1.1c0.1-0.3,0.2-0.5,0.4-0.7c0.2-0.2,0.4-0.3,0.6-0.4
				c0.2-0.1,0.5-0.1,0.8-0.1c0.1,0,0.3,0,0.4,0c0.1,0,0.2,0.1,0.3,0.1c0.1,0,0.2,0.1,0.3,0.1c0.1,0.1,0.1,0.1,0.2,0.1
				c0,0,0.1,0.1,0.1,0.1c0,0,0,0,0,0.1c0,0,0,0.1,0,0.1c0,0,0,0.1,0,0.1c0,0.1,0,0.2,0,0.3c0,0-0.1,0.1-0.1,0.1c0,0-0.1,0-0.2-0.1
				c-0.1-0.1-0.1-0.1-0.2-0.2c-0.1-0.1-0.2-0.1-0.3-0.2c-0.1-0.1-0.3-0.1-0.5-0.1c-0.4,0-0.7,0.1-0.9,0.4c-0.2,0.3-0.3,0.7-0.3,1.2
				c0,0.3,0,0.5,0.1,0.7c0.1,0.2,0.1,0.4,0.2,0.5c0.1,0.1,0.2,0.2,0.4,0.3c0.1,0.1,0.3,0.1,0.5,0.1c0.2,0,0.3,0,0.5-0.1
				c0.1-0.1,0.2-0.1,0.3-0.2c0.1-0.1,0.2-0.1,0.2-0.2c0.1-0.1,0.1-0.1,0.2-0.1c0,0,0,0,0.1,0c0,0,0,0,0,0.1c0,0,0,0.1,0,0.1
				C107.9,53.2,107.9,53.3,107.9,53.3z"/>
			<path class="st1" d="M110,48.3c0,0.2,0,0.3-0.1,0.4c-0.1,0.1-0.2,0.1-0.4,0.1c-0.2,0-0.3,0-0.4-0.1c-0.1-0.1-0.1-0.2-0.1-0.4
				c0-0.2,0-0.3,0.1-0.4c0.1-0.1,0.2-0.1,0.4-0.1c0.2,0,0.3,0,0.4,0.1C110,48,110,48.2,110,48.3z M109.9,54
				C109.9,54,109.9,54,109.9,54c0,0.1,0,0.1-0.1,0.1c0,0-0.1,0-0.1,0c0,0-0.1,0-0.2,0c-0.1,0-0.1,0-0.2,0c0,0-0.1,0-0.1,0
				c0,0,0,0-0.1,0c0,0,0,0,0-0.1v-4.2c0,0,0,0,0-0.1c0,0,0,0,0.1,0c0,0,0.1,0,0.1,0c0.1,0,0.1,0,0.2,0c0.1,0,0.1,0,0.2,0
				c0,0,0.1,0,0.1,0c0,0,0,0,0.1,0c0,0,0,0,0,0.1V54z"/>
			<path class="st1" d="M115.4,51.8c0,0.3,0,0.7-0.1,0.9c-0.1,0.3-0.2,0.5-0.4,0.7c-0.2,0.2-0.4,0.4-0.7,0.5
				c-0.3,0.1-0.6,0.2-0.9,0.2c-0.3,0-0.6-0.1-0.9-0.2c-0.3-0.1-0.5-0.3-0.6-0.4c-0.2-0.2-0.3-0.4-0.4-0.7c-0.1-0.3-0.1-0.6-0.1-1
				c0-0.3,0-0.7,0.1-0.9c0.1-0.3,0.2-0.5,0.4-0.7c0.2-0.2,0.4-0.4,0.7-0.5c0.3-0.1,0.6-0.2,0.9-0.2c0.3,0,0.6,0.1,0.9,0.2
				c0.3,0.1,0.5,0.3,0.6,0.4c0.2,0.2,0.3,0.4,0.4,0.7C115.4,51.1,115.4,51.5,115.4,51.8z M114.6,51.9c0-0.2,0-0.4-0.1-0.6
				c0-0.2-0.1-0.4-0.2-0.5c-0.1-0.2-0.2-0.3-0.4-0.4c-0.2-0.1-0.4-0.1-0.6-0.1c-0.2,0-0.4,0-0.6,0.1c-0.2,0.1-0.3,0.2-0.4,0.3
				c-0.1,0.1-0.2,0.3-0.2,0.5c-0.1,0.2-0.1,0.4-0.1,0.7c0,0.2,0,0.4,0.1,0.6c0,0.2,0.1,0.4,0.2,0.5c0.1,0.2,0.2,0.3,0.4,0.4
				c0.2,0.1,0.4,0.1,0.6,0.1c0.2,0,0.4,0,0.6-0.1c0.2-0.1,0.3-0.2,0.4-0.3c0.1-0.1,0.2-0.3,0.2-0.5
				C114.6,52.3,114.6,52.1,114.6,51.9z M113.7,47.7C113.7,47.7,113.8,47.6,113.7,47.7c0.1-0.1,0.1-0.1,0.2-0.1c0,0,0.1,0,0.1,0
				c0.1,0,0.1,0,0.2,0c0.1,0,0.2,0,0.2,0c0.1,0,0.1,0,0.1,0s0,0,0,0.1c0,0,0,0.1,0,0.1l-0.8,1.1c0,0,0,0.1-0.1,0.1c0,0,0,0-0.1,0
				c0,0-0.1,0-0.1,0c0,0-0.1,0-0.2,0c-0.1,0-0.1,0-0.2,0c0,0-0.1,0-0.1,0c0,0,0,0,0-0.1c0,0,0-0.1,0-0.1L113.7,47.7z"/>
			<path class="st1" d="M120.4,54C120.4,54,120.4,54,120.4,54c0,0.1-0.1,0.1-0.1,0.1c0,0-0.1,0-0.1,0c-0.1,0-0.1,0-0.2,0
				c-0.1,0-0.1,0-0.2,0c0,0-0.1,0-0.1,0c0,0,0,0-0.1,0c0,0,0,0,0-0.1v-2.5c0-0.2,0-0.4-0.1-0.6c0-0.1-0.1-0.3-0.2-0.4
				c-0.1-0.1-0.2-0.2-0.3-0.2c-0.1-0.1-0.2-0.1-0.4-0.1c-0.2,0-0.4,0.1-0.6,0.2c-0.2,0.1-0.4,0.3-0.6,0.6V54c0,0,0,0,0,0.1
				c0,0,0,0-0.1,0c0,0-0.1,0-0.1,0c-0.1,0-0.1,0-0.2,0c-0.1,0-0.1,0-0.2,0c-0.1,0-0.1,0-0.1,0c0,0,0,0-0.1,0c0,0,0,0,0-0.1v-4.2
				c0,0,0,0,0-0.1c0,0,0,0,0.1,0c0,0,0.1,0,0.1,0c0,0,0.1,0,0.2,0c0.1,0,0.1,0,0.2,0c0,0,0.1,0,0.1,0c0,0,0,0,0.1,0c0,0,0,0,0,0.1
				v0.6c0.2-0.3,0.5-0.5,0.7-0.6c0.2-0.1,0.5-0.2,0.7-0.2c0.3,0,0.5,0,0.7,0.1c0.2,0.1,0.3,0.2,0.5,0.4c0.1,0.2,0.2,0.3,0.3,0.6
				c0.1,0.2,0.1,0.5,0.1,0.8V54z"/>
			<path class="st1" d="M127.9,51.7c0,0.1,0,0.2-0.1,0.3c-0.1,0.1-0.1,0.1-0.2,0.1h-2.8c0,0.2,0,0.4,0.1,0.6c0,0.2,0.1,0.3,0.2,0.5
				c0.1,0.1,0.3,0.2,0.4,0.3c0.2,0.1,0.4,0.1,0.6,0.1c0.2,0,0.4,0,0.5,0c0.2,0,0.3-0.1,0.4-0.1c0.1,0,0.2-0.1,0.3-0.1
				c0.1,0,0.1,0,0.2,0c0,0,0,0,0.1,0c0,0,0,0,0,0c0,0,0,0.1,0,0.1c0,0,0,0.1,0,0.1c0,0,0,0.1,0,0.1c0,0,0,0.1,0,0.1c0,0,0,0,0,0.1
				c0,0,0,0,0,0.1c0,0-0.1,0-0.2,0.1c-0.1,0-0.2,0.1-0.3,0.1c-0.1,0-0.3,0.1-0.5,0.1c-0.2,0-0.4,0-0.6,0c-0.3,0-0.6,0-0.9-0.1
				c-0.3-0.1-0.5-0.2-0.7-0.4c-0.2-0.2-0.3-0.4-0.4-0.7c-0.1-0.3-0.1-0.6-0.1-1c0-0.4,0-0.7,0.1-1c0.1-0.3,0.2-0.5,0.4-0.7
				c0.2-0.2,0.4-0.4,0.6-0.5c0.2-0.1,0.5-0.2,0.8-0.2c0.3,0,0.6,0.1,0.8,0.2c0.2,0.1,0.4,0.2,0.6,0.4c0.2,0.2,0.3,0.4,0.3,0.6
				c0.1,0.2,0.1,0.5,0.1,0.8V51.7z M127.1,51.5c0-0.4-0.1-0.7-0.3-1c-0.2-0.2-0.5-0.3-0.8-0.3c-0.2,0-0.4,0-0.5,0.1
				c-0.1,0.1-0.3,0.2-0.4,0.3c-0.1,0.1-0.2,0.3-0.2,0.4c-0.1,0.2-0.1,0.3-0.1,0.5H127.1z"/>
			<path class="st1" d="M130.1,54C130.1,54,130,54,130.1,54c0,0.1-0.1,0.1-0.1,0.1c0,0-0.1,0-0.1,0c0,0-0.1,0-0.2,0
				c-0.1,0-0.1,0-0.2,0c0,0-0.1,0-0.1,0c0,0-0.1,0-0.1,0c0,0,0,0,0-0.1v-6.2c0,0,0,0,0-0.1c0,0,0,0,0.1,0c0,0,0.1,0,0.1,0
				c0.1,0,0.1,0,0.2,0c0.1,0,0.1,0,0.2,0c0,0,0.1,0,0.1,0c0,0,0,0,0.1,0c0,0,0,0,0,0.1V54z"/>
			<path class="st1" d="M135.3,51.7c0,0.1,0,0.2-0.1,0.3C135.1,52,135,52,135,52h-2.8c0,0.2,0,0.4,0.1,0.6c0,0.2,0.1,0.3,0.2,0.5
				c0.1,0.1,0.3,0.2,0.4,0.3c0.2,0.1,0.4,0.1,0.6,0.1c0.2,0,0.4,0,0.5,0c0.2,0,0.3-0.1,0.4-0.1c0.1,0,0.2-0.1,0.3-0.1
				c0.1,0,0.1,0,0.2,0c0,0,0,0,0.1,0c0,0,0,0,0,0c0,0,0,0.1,0,0.1c0,0,0,0.1,0,0.1c0,0,0,0.1,0,0.1c0,0,0,0.1,0,0.1c0,0,0,0,0,0.1
				c0,0,0,0,0,0.1c0,0-0.1,0-0.2,0.1c-0.1,0-0.2,0.1-0.3,0.1c-0.1,0-0.3,0.1-0.5,0.1c-0.2,0-0.4,0-0.6,0c-0.3,0-0.6,0-0.9-0.1
				c-0.3-0.1-0.5-0.2-0.7-0.4c-0.2-0.2-0.3-0.4-0.4-0.7c-0.1-0.3-0.1-0.6-0.1-1c0-0.4,0-0.7,0.1-1c0.1-0.3,0.2-0.5,0.4-0.7
				c0.2-0.2,0.4-0.4,0.6-0.5c0.2-0.1,0.5-0.2,0.8-0.2c0.3,0,0.6,0.1,0.8,0.2c0.2,0.1,0.4,0.2,0.6,0.4c0.1,0.2,0.3,0.4,0.3,0.6
				c0.1,0.2,0.1,0.5,0.1,0.8V51.7z M134.5,51.5c0-0.4-0.1-0.7-0.3-1c-0.2-0.2-0.5-0.3-0.8-0.3c-0.2,0-0.4,0-0.5,0.1
				c-0.1,0.1-0.3,0.2-0.4,0.3c-0.1,0.1-0.2,0.3-0.2,0.4c-0.1,0.2-0.1,0.3-0.1,0.5H134.5z"/>
			<path class="st1" d="M139.6,53.3c0,0.1,0,0.1,0,0.1c0,0,0,0.1,0,0.1c0,0,0,0,0,0.1c0,0,0,0-0.1,0.1c0,0-0.1,0.1-0.2,0.1
				c-0.1,0.1-0.2,0.1-0.3,0.2c-0.1,0-0.2,0.1-0.4,0.1c-0.1,0-0.3,0-0.4,0c-0.3,0-0.6-0.1-0.8-0.2c-0.2-0.1-0.4-0.2-0.6-0.4
				c-0.2-0.2-0.3-0.4-0.4-0.7c-0.1-0.3-0.1-0.6-0.1-1c0-0.4,0-0.8,0.2-1.1c0.1-0.3,0.2-0.5,0.4-0.7c0.2-0.2,0.4-0.3,0.6-0.4
				c0.2-0.1,0.5-0.1,0.8-0.1c0.1,0,0.3,0,0.4,0c0.1,0,0.2,0.1,0.3,0.1c0.1,0,0.2,0.1,0.3,0.1c0.1,0.1,0.1,0.1,0.2,0.1
				c0,0,0.1,0.1,0.1,0.1c0,0,0,0,0,0.1c0,0,0,0.1,0,0.1c0,0,0,0.1,0,0.1c0,0.1,0,0.2,0,0.3c0,0-0.1,0.1-0.1,0.1c0,0-0.1,0-0.2-0.1
				c-0.1-0.1-0.1-0.1-0.2-0.2c-0.1-0.1-0.2-0.1-0.3-0.2c-0.1-0.1-0.3-0.1-0.5-0.1c-0.4,0-0.7,0.1-0.9,0.4c-0.2,0.3-0.3,0.7-0.3,1.2
				c0,0.3,0,0.5,0.1,0.7c0.1,0.2,0.1,0.4,0.2,0.5c0.1,0.1,0.2,0.2,0.4,0.3c0.1,0.1,0.3,0.1,0.5,0.1c0.2,0,0.3,0,0.5-0.1
				c0.1-0.1,0.2-0.1,0.3-0.2c0.1-0.1,0.2-0.1,0.2-0.2c0.1-0.1,0.1-0.1,0.2-0.1c0,0,0,0,0.1,0c0,0,0,0,0,0.1c0,0,0,0.1,0,0.1
				C139.6,53.2,139.6,53.3,139.6,53.3z"/>
			<path class="st1" d="M143,53.7c0,0.1,0,0.2,0,0.2c0,0.1,0,0.1-0.1,0.1c0,0-0.1,0-0.1,0.1c0,0-0.1,0-0.2,0.1c-0.1,0-0.1,0-0.2,0
				c-0.1,0-0.1,0-0.2,0c-0.2,0-0.4,0-0.6-0.1c-0.2-0.1-0.3-0.1-0.4-0.3c-0.1-0.1-0.2-0.3-0.2-0.4c0-0.2-0.1-0.4-0.1-0.6v-2.5h-0.6
				c0,0-0.1,0-0.1-0.1c0,0,0-0.1,0-0.2c0-0.1,0-0.1,0-0.1c0,0,0-0.1,0-0.1c0,0,0,0,0-0.1c0,0,0,0,0.1,0h0.6v-1c0,0,0,0,0-0.1
				c0,0,0,0,0.1,0c0,0,0.1,0,0.1,0c0,0,0.1,0,0.2,0c0.1,0,0.1,0,0.2,0c0,0,0.1,0,0.1,0c0,0,0,0,0.1,0c0,0,0,0,0,0.1v1h1.1
				c0,0,0,0,0.1,0c0,0,0,0,0.1,0.1c0,0,0,0.1,0,0.1c0,0,0,0.1,0,0.1c0,0.1,0,0.2,0,0.2c0,0.1-0.1,0.1-0.1,0.1h-1.1v2.3
				c0,0.3,0,0.5,0.1,0.7c0.1,0.1,0.2,0.2,0.5,0.2c0.1,0,0.1,0,0.2,0c0.1,0,0.1,0,0.1,0c0,0,0.1,0,0.1,0c0,0,0.1,0,0.1,0c0,0,0,0,0,0
				c0,0,0,0,0,0c0,0,0,0.1,0,0.1C143,53.6,143,53.6,143,53.7z"/>
			<path class="st1" d="M146.7,50c0,0.1,0,0.1,0,0.2c0,0,0,0.1,0,0.1c0,0,0,0,0,0.1c0,0,0,0-0.1,0c0,0-0.1,0-0.1,0c0,0-0.1,0-0.1,0
				c0,0-0.1,0-0.2,0c-0.1,0-0.1,0-0.2,0c-0.1,0-0.2,0-0.2,0c-0.1,0-0.2,0.1-0.2,0.2c-0.1,0.1-0.2,0.2-0.3,0.3
				c-0.1,0.1-0.2,0.3-0.3,0.4V54c0,0,0,0,0,0.1c0,0,0,0-0.1,0c0,0-0.1,0-0.1,0c0,0-0.1,0-0.2,0c-0.1,0-0.1,0-0.2,0c0,0-0.1,0-0.1,0
				c0,0,0,0-0.1,0c0,0,0,0,0-0.1v-4.2c0,0,0,0,0-0.1c0,0,0,0,0.1,0c0,0,0.1,0,0.1,0c0,0,0.1,0,0.2,0c0.1,0,0.1,0,0.2,0
				c0,0,0.1,0,0.1,0c0,0,0,0,0.1,0c0,0,0,0,0,0.1v0.6c0.1-0.2,0.2-0.3,0.3-0.4c0.1-0.1,0.2-0.2,0.3-0.2c0.1-0.1,0.2-0.1,0.3-0.1
				c0.1,0,0.2,0,0.3,0c0,0,0.1,0,0.1,0c0.1,0,0.1,0,0.2,0c0.1,0,0.1,0,0.2,0c0,0,0.1,0,0.1,0c0,0,0,0,0,0c0,0,0,0,0,0.1
				c0,0,0,0.1,0,0.1C146.7,49.9,146.7,50,146.7,50z"/>
			<path class="st1" d="M151.5,51.8c0,0.3,0,0.7-0.1,0.9c-0.1,0.3-0.2,0.5-0.4,0.7c-0.2,0.2-0.4,0.4-0.7,0.5
				c-0.3,0.1-0.6,0.2-0.9,0.2c-0.3,0-0.6-0.1-0.9-0.2c-0.3-0.1-0.5-0.3-0.6-0.4c-0.2-0.2-0.3-0.4-0.4-0.7c-0.1-0.3-0.1-0.6-0.1-1
				c0-0.3,0-0.7,0.1-0.9c0.1-0.3,0.2-0.5,0.4-0.7c0.2-0.2,0.4-0.4,0.7-0.5c0.3-0.1,0.6-0.2,0.9-0.2c0.3,0,0.6,0.1,0.9,0.2
				c0.3,0.1,0.5,0.3,0.6,0.4c0.2,0.2,0.3,0.4,0.4,0.7C151.5,51.1,151.5,51.5,151.5,51.8z M150.7,51.9c0-0.2,0-0.4-0.1-0.6
				c0-0.2-0.1-0.4-0.2-0.5c-0.1-0.2-0.2-0.3-0.4-0.4c-0.2-0.1-0.4-0.1-0.6-0.1c-0.2,0-0.4,0-0.6,0.1c-0.2,0.1-0.3,0.2-0.4,0.3
				c-0.1,0.1-0.2,0.3-0.2,0.5c-0.1,0.2-0.1,0.4-0.1,0.7c0,0.2,0,0.4,0.1,0.6c0,0.2,0.1,0.4,0.2,0.5c0.1,0.2,0.2,0.3,0.4,0.4
				c0.2,0.1,0.4,0.1,0.6,0.1c0.2,0,0.4,0,0.6-0.1c0.2-0.1,0.3-0.2,0.4-0.3c0.1-0.1,0.2-0.3,0.2-0.5
				C150.7,52.3,150.7,52.1,150.7,51.9z M149.8,47.7C149.8,47.7,149.8,47.6,149.8,47.7c0.1-0.1,0.1-0.1,0.2-0.1c0,0,0.1,0,0.1,0
				c0.1,0,0.1,0,0.2,0c0.1,0,0.2,0,0.2,0c0.1,0,0.1,0,0.1,0c0,0,0,0,0,0.1c0,0,0,0.1,0,0.1l-0.8,1.1c0,0,0,0.1-0.1,0.1
				c0,0,0,0-0.1,0c0,0-0.1,0-0.1,0c0,0-0.1,0-0.2,0c-0.1,0-0.1,0-0.2,0c0,0-0.1,0-0.1,0c0,0,0,0,0-0.1c0,0,0-0.1,0-0.1L149.8,47.7z"
				/>
			<path class="st1" d="M156.5,54C156.5,54,156.5,54,156.5,54c0,0.1-0.1,0.1-0.1,0.1c0,0-0.1,0-0.1,0c-0.1,0-0.1,0-0.2,0
				c-0.1,0-0.1,0-0.2,0c-0.1,0-0.1,0-0.1,0c0,0,0,0-0.1,0c0,0,0,0,0-0.1v-2.5c0-0.2,0-0.4-0.1-0.6c0-0.1-0.1-0.3-0.2-0.4
				c-0.1-0.1-0.2-0.2-0.3-0.2c-0.1-0.1-0.2-0.1-0.4-0.1c-0.2,0-0.4,0.1-0.6,0.2c-0.2,0.1-0.4,0.3-0.6,0.6V54c0,0,0,0,0,0.1
				c0,0,0,0-0.1,0c0,0-0.1,0-0.1,0c-0.1,0-0.1,0-0.2,0c-0.1,0-0.1,0-0.2,0c-0.1,0-0.1,0-0.1,0c0,0-0.1,0-0.1,0c0,0,0,0,0-0.1v-4.2
				c0,0,0,0,0-0.1c0,0,0,0,0.1,0c0,0,0.1,0,0.1,0c0,0,0.1,0,0.2,0c0.1,0,0.1,0,0.2,0c0,0,0.1,0,0.1,0c0,0,0,0,0.1,0c0,0,0,0,0,0.1
				v0.6c0.2-0.3,0.5-0.5,0.7-0.6c0.2-0.1,0.5-0.2,0.7-0.2c0.3,0,0.5,0,0.7,0.1c0.2,0.1,0.3,0.2,0.5,0.4c0.1,0.2,0.2,0.3,0.3,0.6
				c0.1,0.2,0.1,0.5,0.1,0.8V54z"/>
			<path class="st1" d="M158.9,48.3c0,0.2,0,0.3-0.1,0.4c-0.1,0.1-0.2,0.1-0.4,0.1c-0.2,0-0.3,0-0.4-0.1c-0.1-0.1-0.1-0.2-0.1-0.4
				c0-0.2,0-0.3,0.1-0.4c0.1-0.1,0.2-0.1,0.4-0.1c0.2,0,0.3,0,0.4,0.1C158.9,48,158.9,48.2,158.9,48.3z M158.8,54
				C158.8,54,158.8,54,158.8,54c0,0.1-0.1,0.1-0.1,0.1c0,0-0.1,0-0.1,0c0,0-0.1,0-0.2,0c-0.1,0-0.1,0-0.2,0c0,0-0.1,0-0.1,0
				c0,0,0,0-0.1,0c0,0,0,0,0-0.1v-4.2c0,0,0,0,0-0.1c0,0,0,0,0.1,0c0,0,0.1,0,0.1,0c0.1,0,0.1,0,0.2,0c0.1,0,0.1,0,0.2,0
				c0.1,0,0.1,0,0.1,0c0,0,0,0,0.1,0c0,0,0,0,0,0.1V54z"/>
			<path class="st1" d="M163.5,53.3c0,0.1,0,0.1,0,0.1c0,0,0,0.1,0,0.1c0,0,0,0,0,0.1c0,0,0,0-0.1,0.1c0,0-0.1,0.1-0.2,0.1
				c-0.1,0.1-0.2,0.1-0.3,0.2c-0.1,0-0.2,0.1-0.4,0.1c-0.1,0-0.3,0-0.4,0c-0.3,0-0.6-0.1-0.8-0.2c-0.2-0.1-0.4-0.2-0.6-0.4
				c-0.2-0.2-0.3-0.4-0.4-0.7c-0.1-0.3-0.1-0.6-0.1-1c0-0.4,0-0.8,0.2-1.1c0.1-0.3,0.2-0.5,0.4-0.7c0.2-0.2,0.4-0.3,0.6-0.4
				c0.2-0.1,0.5-0.1,0.8-0.1c0.1,0,0.3,0,0.4,0c0.1,0,0.2,0.1,0.3,0.1c0.1,0,0.2,0.1,0.3,0.1c0.1,0.1,0.1,0.1,0.2,0.1
				c0,0,0.1,0.1,0.1,0.1c0,0,0,0,0,0.1c0,0,0,0.1,0,0.1c0,0,0,0.1,0,0.1c0,0.1,0,0.2,0,0.3c0,0-0.1,0.1-0.1,0.1c0,0-0.1,0-0.2-0.1
				c-0.1-0.1-0.1-0.1-0.2-0.2c-0.1-0.1-0.2-0.1-0.3-0.2c-0.1-0.1-0.3-0.1-0.5-0.1c-0.4,0-0.7,0.1-0.9,0.4c-0.2,0.3-0.3,0.7-0.3,1.2
				c0,0.3,0,0.5,0.1,0.7c0.1,0.2,0.1,0.4,0.2,0.5c0.1,0.1,0.2,0.2,0.4,0.3c0.1,0.1,0.3,0.1,0.5,0.1c0.2,0,0.3,0,0.5-0.1
				c0.1-0.1,0.2-0.1,0.3-0.2c0.1-0.1,0.2-0.1,0.2-0.2c0.1-0.1,0.1-0.1,0.2-0.1c0,0,0,0,0.1,0c0,0,0,0,0,0.1c0,0,0,0.1,0,0.1
				C163.5,53.2,163.5,53.3,163.5,53.3z"/>
			<path class="st1" d="M167.8,54C167.8,54,167.8,54,167.8,54c-0.1,0.1-0.1,0.1-0.1,0.1c0,0-0.1,0-0.2,0c-0.1,0-0.1,0-0.2,0
				c0,0-0.1,0-0.1,0c0,0,0,0,0-0.1v-0.4c-0.2,0.2-0.4,0.3-0.6,0.5c-0.2,0.1-0.5,0.2-0.7,0.2c-0.2,0-0.4,0-0.6-0.1
				c-0.2-0.1-0.3-0.1-0.5-0.3c-0.1-0.1-0.2-0.2-0.3-0.4c-0.1-0.2-0.1-0.3-0.1-0.5c0-0.2,0-0.4,0.1-0.6c0.1-0.2,0.2-0.3,0.4-0.4
				c0.2-0.1,0.4-0.2,0.7-0.3c0.3-0.1,0.6-0.1,0.9-0.1h0.6v-0.3c0-0.2,0-0.3-0.1-0.4c0-0.1-0.1-0.2-0.2-0.3c-0.1-0.1-0.2-0.1-0.3-0.2
				c-0.1,0-0.3-0.1-0.4-0.1c-0.2,0-0.4,0-0.5,0.1c-0.2,0-0.3,0.1-0.4,0.1c-0.1,0.1-0.2,0.1-0.3,0.1c-0.1,0-0.1,0.1-0.2,0.1
				c0,0,0,0-0.1,0c0,0,0,0,0-0.1c0,0,0-0.1,0-0.1c0,0,0-0.1,0-0.1c0-0.1,0-0.1,0-0.2c0,0,0-0.1,0.1-0.1c0,0,0.1-0.1,0.2-0.1
				c0.1-0.1,0.2-0.1,0.4-0.1c0.1,0,0.3-0.1,0.4-0.1c0.2,0,0.3,0,0.5,0c0.3,0,0.6,0,0.8,0.1c0.2,0.1,0.4,0.2,0.5,0.3
				c0.1,0.1,0.2,0.3,0.3,0.5c0.1,0.2,0.1,0.4,0.1,0.7V54z M167,52h-0.7c-0.2,0-0.4,0-0.6,0.1c-0.2,0-0.3,0.1-0.4,0.2
				c-0.1,0.1-0.2,0.2-0.2,0.3c0,0.1-0.1,0.2-0.1,0.3c0,0.2,0.1,0.4,0.2,0.5c0.1,0.1,0.3,0.2,0.6,0.2c0.2,0,0.4-0.1,0.6-0.2
				c0.2-0.1,0.4-0.3,0.5-0.5V52z"/>
		</g>
	</g>
	<linearGradient id="SVGID_1_" gradientUnits="userSpaceOnUse" x1="42.6993" y1="35.9437" x2="55.9687" y2="2.1198">
		<stop  offset="0" style="stop-color:#0C487B"/>
		<stop  offset="2.701177e-02" style="stop-color:#0B4E86"/>
		<stop  offset="0.1018" style="stop-color:#0A5C9D"/>
		<stop  offset="0.1711" style="stop-color:#0965AC"/>
		<stop  offset="0.2293" style="stop-color:#0968B1"/>
		<stop  offset="0.5706" style="stop-color:#058BBC"/>
		<stop  offset="1" style="stop-color:#00B3C9"/>
	</linearGradient>
	<path class="st2" d="M49.6,39.4l3.1-1.6c0,0,2.8-1.3,3.8-3c0.8-1.4,1.4-5.9,1.4-5.9V0L39.3,10.6L39,33.5L49.6,39.4z"/>
	<linearGradient id="SVGID_2_" gradientUnits="userSpaceOnUse" x1="32.595" y1="34.8536" x2="56.9822" y2="61.7418">
		<stop  offset="0" style="stop-color:#0C487B"/>
		<stop  offset="2.701177e-02" style="stop-color:#0B4E86"/>
		<stop  offset="0.1018" style="stop-color:#0A5C9D"/>
		<stop  offset="0.1711" style="stop-color:#0965AC"/>
		<stop  offset="0.2293" style="stop-color:#0968B1"/>
		<stop  offset="0.5706" style="stop-color:#058BBC"/>
		<stop  offset="1" style="stop-color:#00B3C9"/>
	</linearGradient>
	<path class="st3" d="M49.5,39.8L49.5,39.8L49.5,39.8l-10.6-5.6l-3.4-1.9l-9.7,6.2v4c0,0-0.3,2.5,0.2,3.4c0.8,1.5,4.1,2.9,4.1,2.9
		l27.7,14.7V44.9v-0.6L49.5,39.8z"/>
	<linearGradient id="SVGID_3_" gradientUnits="userSpaceOnUse" x1="39.4478" y1="25.9699" x2="4.2358" y2="34.9482">
		<stop  offset="0" style="stop-color:#0C487B"/>
		<stop  offset="2.701177e-02" style="stop-color:#0B4E86"/>
		<stop  offset="0.1018" style="stop-color:#0A5C9D"/>
		<stop  offset="0.1711" style="stop-color:#0965AC"/>
		<stop  offset="0.2293" style="stop-color:#0968B1"/>
		<stop  offset="0.5706" style="stop-color:#058BBC"/>
		<stop  offset="1" style="stop-color:#00B3C9"/>
	</linearGradient>
	<path class="st4" d="M34.1,17.2c0,0-1.1-0.6-2.8-0.6c-0.9,0-2.9,1.1-2.9,1.1L0,34.8l16,8.6l9.2-5.6l8.9-5.4l0.4-0.2l0.4-0.2l3.2-2
		l0.1-10.6L34.1,17.2z"/>
</g>
</svg>
