<?xml version="1.0" encoding="utf-8"?>
<!-- Generator: Adobe Illustrator 19.0.1, SVG Export Plug-In . SVG Version: 6.00 Build 0)  -->
<svg version="1.1" id="Capa_1" xmlns="http://www.w3.org/2000/svg" xmlns:xlink="http://www.w3.org/1999/xlink" x="0px" y="0px"
	 viewBox="-527 949 24 24" style="enable-background:new -527 949 24 24;" xml:space="preserve">
<style type="text/css">
	.st0{fill:#FFFFFF;}
</style>
<path class="st0" d="M-516.4,951c-0.2,0-0.3,0.1-0.4,0.3l-0.3,2.2c-1.2,0.3-2.3,0.9-3.1,1.8l-2-0.9c-0.2-0.1-0.4,0-0.5,0.2l-1.4,2.4
	c-0.1,0.2-0.1,0.4,0.1,0.5l1.8,1.3c-0.1,0.6-0.2,1.2-0.2,1.8s0.1,1.2,0.2,1.8l-1.8,1.3c-0.2,0.1-0.2,0.3-0.1,0.5l1.4,2.4
	c0.1,0.2,0.3,0.2,0.5,0.2l2-0.9c0.9,0.8,1.9,1.4,3.1,1.8l0.3,2.2c0,0.2,0.2,0.3,0.4,0.3h2.7c0.2,0,0.3-0.1,0.4-0.3l0.3-2.2
	c1.2-0.3,2.3-0.9,3.1-1.8l2,0.9c0.2,0.1,0.4,0,0.5-0.2l1.4-2.4c0.1-0.2,0.1-0.4-0.1-0.5l-1.8-1.3c0.1-0.6,0.2-1.2,0.2-1.8
	s-0.1-1.2-0.2-1.8l1.8-1.3c0.2-0.1,0.2-0.3,0.1-0.5l-1.4-2.4c-0.1-0.2-0.3-0.2-0.5-0.2l-2,0.9c-0.9-0.8-1.9-1.4-3.1-1.8l-0.3-2.2
	c0-0.2-0.2-0.3-0.4-0.3H-516.4z M-515,957.6c1.6,0,2.9,1.3,2.9,2.9s-1.3,2.9-2.9,2.9s-2.9-1.3-2.9-2.9S-516.6,957.6-515,957.6z"/>
</svg>
