<?xml version="1.0" encoding="utf-8"?>
<!-- Generator: Adobe Illustrator 16.0.0, SVG Export Plug-In . SVG Version: 6.00 Build 0)  -->
<!DOCTYPE svg PUBLIC "-//W3C//DTD SVG 1.1//EN" "http://www.w3.org/Graphics/SVG/1.1/DTD/svg11.dtd">
<svg version="1.1" id="Capa_1" xmlns="http://www.w3.org/2000/svg" xmlns:xlink="http://www.w3.org/1999/xlink" x="0px" y="0px"
	 width="200px" height="200px" viewBox="60.232 -64.866 50 50" enable-background="new 60.232 -64.866 50 50" xml:space="preserve">
<g>
	<linearGradient id="SVGID_1_" gradientUnits="userSpaceOnUse" x1="93.1426" y1="-34.0708" x2="99.4558" y2="-60.9822">
		<stop  offset="0" style="stop-color:#0C487B"/>
		<stop  offset="0.0312" style="stop-color:#094F88"/>
		<stop  offset="0.1044" style="stop-color:#045D9F"/>
		<stop  offset="0.1723" style="stop-color:#0165AE"/>
		<stop  offset="0.2293" style="stop-color:#0068B3"/>
		<stop  offset="0.5706" style="stop-color:#008BBE"/>
		<stop  offset="1" style="stop-color:#00B3CA"/>
	</linearGradient>
	<path fill="url(#SVGID_1_)" d="M97.509-34.51l1.919-1c0,0,2.056-0.927,2.762-2.187c0.554-0.985,1.043-2.311,1.043-4.256
		c0-5.744,0-20.914,0-20.914l-13.684,7.8v16.238L97.509-34.51z"/>
	<linearGradient id="SVGID_2_" gradientUnits="userSpaceOnUse" x1="84.3027" y1="-38.9775" x2="102.2577" y2="-17.5314">
		<stop  offset="0" style="stop-color:#0C487B"/>
		<stop  offset="0.0312" style="stop-color:#094F88"/>
		<stop  offset="0.1044" style="stop-color:#045D9F"/>
		<stop  offset="0.1723" style="stop-color:#0165AE"/>
		<stop  offset="0.2293" style="stop-color:#0068B3"/>
		<stop  offset="0.5706" style="stop-color:#008BBE"/>
		<stop  offset="1" style="stop-color:#00B3CA"/>
	</linearGradient>
	<path fill="url(#SVGID_2_)" d="M97.146-34.056L97.146-34.056L97.146-34.056l-9.951-5.26l-7.223,4.378v2.872
		c0,0-0.193,1.792,0.149,2.454c0.571,1.111,3.029,2.137,3.029,2.137l20.081,10.609v-13.524v-0.398L97.146-34.056z"/>
	<linearGradient id="SVGID_3_" gradientUnits="userSpaceOnUse" x1="91.4443" y1="-50.5244" x2="61.669" y2="-30.3975">
		<stop  offset="0" style="stop-color:#0C487B"/>
		<stop  offset="0.0312" style="stop-color:#094F88"/>
		<stop  offset="0.1044" style="stop-color:#045D9F"/>
		<stop  offset="0.1723" style="stop-color:#0165AE"/>
		<stop  offset="0.2293" style="stop-color:#0068B3"/>
		<stop  offset="0.4432" style="stop-color:#008BBE"/>
		<stop  offset="1" style="stop-color:#00B3CA"/>
	</linearGradient>
	<path fill="url(#SVGID_3_)" d="M85.938-50.39c0,0-0.771-0.405-2.017-0.405c-0.677,0-2.129,0.817-2.129,0.817l-20.56,12.309
		l11.597,6.218L79.48-35.5l6.439-3.917l0.287-0.175l0.28-0.174l2.332-1.417v-7.506L85.938-50.39z"/>
</g>
</svg>
