<?xml version="1.0" encoding="utf-8"?>
<!-- Generator: Adobe Illustrator 16.0.0, SVG Export Plug-In . SVG Version: 6.00 Build 0)  -->
<!DOCTYPE svg PUBLIC "-//W3C//DTD SVG 1.1//EN" "http://www.w3.org/Graphics/SVG/1.1/DTD/svg11.dtd">
<svg version="1.1" xmlns="http://www.w3.org/2000/svg" xmlns:xlink="http://www.w3.org/1999/xlink" x="0px" y="0px" width="22px"
	 height="20px" viewBox="0 0 22 20" enable-background="new 0 0 22 20" xml:space="preserve">
<g id="Capa_1">
	<g id="Capa_1_2_">
		<g id="Capa_1_1_">
			<g display="none">
				<path display="inline" fill="#9BACB9" d="M11.07,8.792c3.833,0.079,2.887,2.664,2.866,3.406L17.5,8.844L10.104,2l-4.06,3.915
					C5.988,9.183,8.139,8.732,11.07,8.792z"/>
				<path display="inline" fill="#9BACB9" d="M8.928,11.208c-3.834-0.077-2.887-2.662-2.864-3.407L2.5,11.156L9.896,18l4.06-3.915
					C14.014,10.818,11.861,11.268,8.928,11.208z"/>
			</g>
		</g>
		<g id="Modo_de_aislamiento" display="none">
			<circle display="inline" fill="#9BACB9" cx="-23.549" cy="10" r="9"/>
			<path display="inline" fill="#FFFFFF" d="M-28.344,11.689l3.109-0.183c0.068,0.479,0.204,0.843,0.412,1.097
				c0.332,0.402,0.815,0.603,1.44,0.603c0.467,0,0.824-0.101,1.078-0.31c0.25-0.205,0.379-0.441,0.379-0.717
				c0-0.266-0.121-0.496-0.361-0.697c-0.244-0.205-0.799-0.4-1.674-0.584c-1.434-0.306-2.453-0.708-3.062-1.209
				c-0.615-0.506-0.922-1.152-0.922-1.93c0-0.516,0.155-1.004,0.471-1.46c0.313-0.461,0.785-0.816,1.42-1.079
				c0.629-0.262,1.497-0.396,2.595-0.396c1.355,0,2.385,0.239,3.09,0.717c0.709,0.473,1.135,1.236,1.266,2.27l-3.073,0.171
				c-0.084-0.455-0.254-0.781-0.521-0.985c-0.258-0.2-0.621-0.305-1.078-0.305c-0.382,0-0.668,0.077-0.862,0.228
				c-0.192,0.154-0.287,0.341-0.287,0.555c0,0.165,0.075,0.302,0.234,0.437c0.156,0.129,0.52,0.248,1.099,0.367
				c1.424,0.289,2.444,0.58,3.063,0.882c0.615,0.301,1.067,0.667,1.35,1.109c0.277,0.438,0.424,0.934,0.424,1.48
				c0,0.641-0.191,1.236-0.564,1.771c-0.375,0.545-0.896,0.959-1.571,1.23c-0.668,0.279-1.521,0.42-2.545,0.42
				c-1.796,0-3.037-0.33-3.732-0.979C-27.86,13.537-28.25,12.703-28.344,11.689L-28.344,11.689z"/>
		</g>
	</g>
</g>
<g id="Modo_de_aislamiento_1_">
	<g>
		<path fill="#ffffff" d="M11.001,20c1.105,0,2-0.895,2-2.001H9C9,19.105,9.896,20,11.001,20z M17.5,13.999V8.5
			c0-3.075-2.135-5.641-4.999-6.32V1.5c0-0.83-0.67-1.5-1.5-1.5S9.5,0.67,9.5,1.5v0.68C6.636,2.859,4.501,5.425,4.501,8.5v5.499
			l-2.001,2V17h17v-1.001L17.5,13.999z"/>
	</g>
</g>
</svg>
